<?xml version="1.0" encoding="UTF-8" standalone="no"?>
<!DOCTYPE svg PUBLIC "-//W3C//DTD SVG 1.1//EN" "http://www.w3.org/Graphics/SVG/1.1/DTD/svg11.dtd">
<svg width="100%" height="100%" viewBox="0 0 2048 2048" version="1.1" xmlns="http://www.w3.org/2000/svg" xmlns:xlink="http://www.w3.org/1999/xlink" xml:space="preserve" xmlns:serif="http://www.serif.com/" style="fill-rule:evenodd;clip-rule:evenodd;stroke-linecap:round;stroke-linejoin:round;stroke-miterlimit:1.5;">
    <g id="OK-2nd" serif:id="OK 2nd" transform="matrix(-1.0781,-1.32029e-16,-1.32029e-16,1.0781,867.503,-40.0344)">
        <path d="M512,92.733L512,931.267L148.904,721.634L148.904,302.366L512,92.733Z" style="stroke:rgb(209,0,164);stroke-width:52.82px;"/>
    </g>
    <g id="OK-2nd1" serif:id="OK 2nd" transform="matrix(1.0781,-1.32029e-16,1.32029e-16,1.0781,1177.62,-40.0344)">
        <path d="M512,92.733L512,931.267L148.904,721.634L148.904,302.366L512,92.733Z" style="stroke:rgb(209,0,164);stroke-width:52.82px;"/>
    </g>
    <g id="OK-2nd2" serif:id="OK 2nd" transform="matrix(-2.30982,-2.82871e-16,-2.82871e-16,2.30982,2206.63,-158.628)">
        <path d="M512,92.733L875.096,302.366L875.096,721.634L512,931.267L148.904,721.634L148.904,302.366L512,92.733Z" style="fill:rgb(44,82,194);"/>
        <clipPath id="_clip1">
            <path d="M512,92.733L875.096,302.366L875.096,721.634L512,931.267L148.904,721.634L148.904,302.366L512,92.733Z"/>
        </clipPath>
        <g clip-path="url(#_clip1)">
            <g transform="matrix(-0.710245,-8.69799e-17,-1.02608e-16,0.837859,875.069,94.6256)">
                <rect x="0" y="0" width="515.804" height="996.288" style="fill:rgb(30,30,30);"/>
            </g>
            <g transform="matrix(-0.697586,-8.54297e-17,-1.03073e-16,0.841659,508.722,92.7329)">
                <rect x="0" y="0" width="515.804" height="996.288" style="fill:rgb(42,42,42);"/>
            </g>
        </g>
        <path d="M512,92.733L875.096,302.366L875.096,721.634L512,931.267L148.904,721.634L148.904,302.366L512,92.733Z" style="fill:none;stroke:rgb(209,0,164);stroke-width:24.65px;"/>
    </g>
    <g transform="matrix(-1.97431,0.465812,0.278003,3.93953,1948.95,-552.141)">
        <path d="M370.227,356.308C451.683,356.308 456.473,346.11 453.568,355.403C440.963,395.731 387.436,427.524 305.979,427.524C224.522,427.524 158.39,395.207 158.39,355.403C158.39,315.598 288.77,356.308 370.227,356.308Z" style="fill:none;"/>
        <clipPath id="_clip2">
            <path d="M370.227,356.308C451.683,356.308 456.473,346.11 453.568,355.403C440.963,395.731 387.436,427.524 305.979,427.524C224.522,427.524 158.39,395.207 158.39,355.403C158.39,315.598 288.77,356.308 370.227,356.308Z"/>
        </clipPath>
        <g clip-path="url(#_clip2)">
            <g transform="matrix(1.04919,-3.67967e-17,3.79832e-18,0.988472,-17.5771,-4.04044)">
                <path d="M302.021,324.748C383.477,324.748 453.568,315.598 453.568,355.403C453.568,395.207 387.436,427.524 305.979,427.524C224.522,427.524 158.39,395.207 158.39,355.403C158.39,315.598 220.564,324.748 302.021,324.748Z" style="fill:rgb(235,235,235);stroke:rgb(209,0,164);stroke-width:30.47px;"/>
            </g>
        </g>
    </g>
    <g transform="matrix(1.97431,0.465812,-0.235628,3.33904,80.9356,-295.421)">
        <path d="M240.706,285.055C341.008,292.792 450.072,326.576 453.568,355.403C458.372,395.007 387.436,427.524 305.979,427.524C224.522,427.524 158.39,395.207 158.39,355.403C158.39,315.598 161.987,278.984 240.706,285.055Z" style="fill:none;"/>
        <clipPath id="_clip3">
            <path d="M240.706,285.055C341.008,292.792 450.072,326.576 453.568,355.403C458.372,395.007 387.436,427.524 305.979,427.524C224.522,427.524 158.39,395.207 158.39,355.403C158.39,315.598 161.987,278.984 240.706,285.055Z"/>
        </clipPath>
        <g clip-path="url(#_clip3)">
            <g transform="matrix(1.05079,-1.30252e-17,-7.22872e-17,1.03395,-23.5593,-17.1883)">
                <path d="M248.74,284.703C330.197,284.703 453.568,315.598 453.568,355.403C453.568,395.207 387.436,427.524 305.979,427.524C224.522,427.524 158.39,395.207 158.39,355.403C158.39,315.598 167.283,284.703 248.74,284.703Z" style="fill:rgb(235,235,235);stroke:rgb(209,0,164);stroke-width:30.47px;"/>
            </g>
        </g>
    </g>
</svg>
